<?xml version="1.0" encoding="utf-8"?>
<!-- Generator: Adobe Illustrator 18.1.1, SVG Export Plug-In . SVG Version: 6.00 Build 0)  -->
<svg version="1.1" id="Layer_1" xmlns="http://www.w3.org/2000/svg" xmlns:xlink="http://www.w3.org/1999/xlink" x="0px" y="0px"
	 viewBox="0 0 561 85" enable-background="new 0 0 561 85" xml:space="preserve">
<g>
	<path fill="#6A6C71" d="M48.3,12.1c-5.1-7.5-12.6-9.6-20.8-10C25.2,2,23.1,2,20.9,2H0v81.4h16.9V52.4h5.6c8.3,0,16.6,0,22.9-6.5
		c6.6-6.7,7.2-14.9,7.2-18.7C52.6,19.5,50,14.6,48.3,12.1z M29.3,36.9c-1.9,0.6-3.5,0.6-5.6,0.6H17V16.7H24c2.7,0,4.1,0.2,5.3,0.5
		c2.4,0.7,6.7,3.1,6.7,10C36,29.4,35.5,35,29.3,36.9z"/>
	<polygon fill="#6A6C71" points="59.4,2 59.4,83.3 103.5,83.3 103.5,67.1 76.3,67.1 76.3,49.7 103,49.7 103,33.9 76.3,33.9 
		76.3,17.7 103.6,17.7 103.6,2 	"/>
	<polygon fill="#6A6C71" points="170.6,2 170.6,83.3 187.6,83.3 187.6,49.2 215.8,49.2 215.8,33.3 187.6,33.3 187.6,17.4 
		215.8,17.4 215.8,2 	"/>
	<polygon fill="#6A6C71" points="223.3,2 223.3,83.3 267.4,83.3 267.4,67.1 240.1,67.1 240.1,49.7 266.8,49.7 266.8,33.9 
		240.1,33.9 240.1,17.7 267.5,17.7 267.5,2 	"/>
	<polygon fill="#6A6C71" points="338.8,2 338.8,17.9 355.5,17.9 355.5,83.3 372.4,83.3 372.4,17.6 389,17.6 389,2 	"/>
	<polygon fill="#6A6C71" points="416.9,2 416.8,83.3 433.8,83.3 433.8,49.2 462.1,49.2 462.1,33.3 433.8,33.3 433.8,17.4 
		462.1,17.4 462.1,2 	"/>
	<rect x="470.5" y="2" fill="#6A6C71" width="17" height="81.4"/>
	<polygon fill="#6A6C71" points="495.4,2 495.4,17.9 512,17.9 512,83.3 528.9,83.3 528.9,17.6 545.5,17.6 545.5,2 	"/>
	<path fill="#6A6C71" d="M313,64.8c-1.7-1.9-5-4.1-6.9-4.1c-1.5,0-2.9-0.1-4.3,0.2c-3.6,0.8-6.3-0.5-7.9-3.8
		c-0.1-0.3-0.4-0.5-0.7-0.6c-1.6-0.5-2.6-1.7-3.1-3.3c-0.1-0.4-0.4-0.8-0.7-1.2c-1.6-1.8-1.7-2.9-0.3-4.9c2-2.9,3.6-5.9,4.1-9.4
		c0.7-4.6,3.1-8,6.9-10.4c1.6-1,3.3-1.9,4.9-2.8c0.4-0.9,0.2-2.3-0.9-4.3c-2.1-2.8-1.3-6.9-0.8-6.8c0.6,0.1,4.9,4.5,6.4,4.8
		c0.5-0.5-1.2-5.5-1.7-8.1c-0.1-0.5-0.2-2,1.1-1.9c1.3,0.1,5.1,2.8,5.1,2.8c5.8,4.2,5.7,6.7,9.7,10.4c4.8,2.2,6.1,3.8,9.2,6.4V5.5
		c-2-0.9-4.1-1.8-6.2-2.7C319.6,0.3,312.6,0,310.1,0c-2.2,0-8.5,0.2-14.8,2.8c-5,2-9.4,5.4-12.9,9.6c-3.1,3.5-4.6,6.3-5.5,8.1
		c-3.2,6.6-4.7,15-4.7,22.2c0,18.4,8.9,29.3,14,33.8c9.3,8.3,20.6,8.6,24.5,8.6c10.8,0,18.7-3.9,22.3-5.4l0-3.9
		C332.9,75.7,319.2,71.3,313,64.8"/>
	<path fill="#6A6C71" d="M145.3,48.7c4.9-1.2,6.4-1.7,8.6-3.2c6.2-4.1,8.9-12.1,8.9-19.5c0-2.2-0.2-8.2-3.6-13.6
		c-5-8.1-13.1-10-21.5-10.4C135.6,2,133.6,2,131.5,2h-20.8v81.4h16.4V49l20.6,34.3h20.1L145.3,48.7z M133.3,37.6h-6.1V16.1h5.7
		c4.1,0.1,8.3,0.5,11.1,3.9c2.1,2.5,2.2,5.5,2.2,6.7c0,2.9-0.9,4.7-1.4,5.8C142.3,37.1,137.8,37.4,133.3,37.6z"/>
</g>
<g>
	<polygon fill="#6A6C71" points="553,2 553,2.9 553.8,2.9 553.8,6 554.9,6 554.9,2.9 555.7,2.9 555.7,2 	"/>
	<path fill="#6A6C71" d="M556.6,2L556,6h1.1l0.2-1.4c0-0.3,0.1-0.6,0.1-0.9c0.1,0.2,0.1,0.4,0.2,0.7l0.5,1.7h0.7l0.5-1.7
		c0.1-0.2,0.1-0.5,0.2-0.7c0,0.3,0.1,0.6,0.1,0.9l0.2,1.4h1.1l-0.6-4h-1.2l-0.4,1.3c0,0.2-0.1,0.3-0.1,0.5c0,0.1-0.1,0.2-0.1,0.4
		c0-0.1-0.1-0.3-0.1-0.4c0-0.1-0.1-0.3-0.1-0.4L557.8,2H556.6"/>
</g>
</svg>
